<svg xmlns="http://www.w3.org/2000/svg" viewBox="0 0 60 75" x="0px" y="0px"><g><path d="M0,48.39c-.01,.79,.29,1.57,.83,2.17,.56,.59,1.31,.93,2.13,.96,.03,0,.06,0,.09,0,.44,0,.86-.1,1.25-.28l2.25,2.37c4.02,4.24,9.43,6.38,14.85,6.38,5.04,0,10.09-1.85,14.03-5.58,7.94-7.51,8.49-19.92,1.46-28.12l7.69-7.29c.19,.06,.39,.1,.59,.1,.5,0,1-.18,1.39-.55l12.17-11.52c.8-.74,1.25-1.76,1.28-2.85,.03-1.09-.37-2.12-1.11-2.9-1.54-1.62-4.12-1.7-5.75-.16l-12.16,11.53c-.4,.37-.63,.87-.64,1.41,0,.19,.02,.37,.06,.54l-6.32,5.98c-.14-.32-.33-.63-.58-.89-.55-.59-1.3-.93-2.12-.96-.84-.02-1.6,.27-2.2,.83L.96,46.26c-.58,.55-.92,1.3-.96,2.13Zm34.05,4.57c-7.38,6.98-19.07,6.66-26.06-.73l-2.12-2.24L28.23,28.84l4.43-4.19,2.13,2.25c6.98,7.38,6.66,19.07-.73,26.06Zm1.49-28.16l-.08-.09-1.35-1.43,7.46-7.05,1.43,1.51-7.46,7.06ZM54.51,2.56c.4-.38,.91-.56,1.42-.56,.55,0,1.1,.22,1.51,.65,.38,.4,.58,.92,.56,1.47-.01,.56-.24,1.07-.65,1.45l-12.21,11.52-2.8-3L54.51,2.56ZM2.33,47.71L30.56,21c.2-.19,.45-.29,.72-.29h.04c.28,0,.53,.12,.73,.33,.19,.2,.3,.47,.29,.74v.02c0,.27-.12,.52-.32,.71L3.77,49.23h0c-.2,.2-.46,.3-.75,.29-.28,0-.54-.12-.72-.32-.19-.21-.3-.49-.3-.75,.01-.28,.13-.54,.33-.73Z"/><path d="M12.41,48.09l-1.63,1.55c-.4,.38-.42,1.01-.04,1.41,.2,.21,.46,.31,.73,.31,.25,0,.49-.09,.69-.27l1.63-1.55c.4-.38,.42-1.01,.04-1.41-.38-.4-1.01-.42-1.41-.04Z"/><path d="M18.69,44.9c.4-.38,.42-1.01,.04-1.41s-1.01-.42-1.41-.04l-1.63,1.55c-.4,.38-.42,1.01-.04,1.41,.2,.21,.46,.31,.73,.31,.25,0,.49-.09,.69-.27l1.63-1.55Z"/><path d="M23.59,40.26c.4-.38,.42-1.01,.04-1.41-.38-.4-1.01-.42-1.41-.04l-1.63,1.55c-.4,.38-.42,1.01-.04,1.41,.2,.21,.46,.31,.73,.31,.25,0,.49-.09,.69-.27l1.63-1.55Z"/><path d="M26.18,37.45c.25,0,.49-.09,.69-.27l1.63-1.55c.4-.38,.42-1.01,.04-1.41-.38-.4-1.01-.42-1.41-.04l-1.63,1.55c-.4,.38-.42,1.01-.04,1.41,.2,.21,.46,.31,.73,.31Z"/><path d="M31.08,32.81c.25,0,.49-.09,.69-.27l1.63-1.55c.4-.38,.42-1.01,.04-1.41-.38-.4-1.01-.42-1.41-.04l-1.63,1.55c-.4,.38-.42,1.01-.04,1.41,.2,.21,.46,.31,.73,.31Z"/><path d="M18.73,49.86l-1.63,1.55c-.4,.38-.42,1.01-.04,1.41,.2,.21,.46,.31,.73,.31,.25,0,.49-.09,.69-.27l1.63-1.55c.4-.38,.42-1.01,.04-1.41-.38-.4-1.01-.42-1.41-.04Z"/><path d="M25.01,46.67c.4-.38,.42-1.01,.04-1.41-.38-.4-1.01-.42-1.41-.04l-1.63,1.55c-.4,.38-.42,1.01-.04,1.41,.2,.21,.46,.31,.73,.31,.25,0,.49-.09,.69-.27l1.63-1.55Z"/><path d="M29.91,42.03c.4-.38,.42-1.01,.04-1.41-.38-.4-1.01-.42-1.41-.04l-1.63,1.55c-.4,.38-.42,1.01-.04,1.41,.2,.21,.46,.31,.73,.31,.25,0,.49-.09,.69-.27l1.63-1.55Z"/><path d="M33.44,35.94l-1.63,1.55c-.4,.38-.42,1.01-.04,1.41,.2,.21,.46,.31,.73,.31,.25,0,.49-.09,.69-.27l1.63-1.55c.4-.38,.42-1.01,.04-1.41-.38-.4-1.01-.42-1.41-.04Z"/><path d="M25.05,51.62l-1.63,1.55c-.4,.38-.42,1.01-.04,1.41,.2,.21,.46,.31,.73,.31,.25,0,.49-.09,.69-.27l1.63-1.55c.4-.38,.42-1.01,.04-1.41-.38-.4-1.01-.42-1.41-.04Z"/><path d="M29.95,46.98l-1.63,1.55c-.4,.38-.42,1.01-.04,1.41,.2,.21,.46,.31,.73,.31,.25,0,.49-.09,.69-.27l1.63-1.55c.4-.38,.42-1.01,.04-1.41-.38-.4-1.01-.42-1.41-.04Z"/><path d="M33.22,43.89c-.4,.38-.42,1.01-.04,1.41,.2,.21,.46,.31,.73,.31,.25,0,.49-.09,.69-.27l1.63-1.55c.4-.38,.42-1.01,.04-1.41-.38-.4-1.01-.42-1.41-.04l-1.63,1.55Z"/></g><text x="0" y="75" fill="#000000" font-size="5px" font-weight="bold" font-family="'Helvetica Neue', Helvetica, Arial-Unicode, Arial, Sans-serif">Created by Juicy Fish</text><text x="0" y="80" fill="#000000" font-size="5px" font-weight="bold" font-family="'Helvetica Neue', Helvetica, Arial-Unicode, Arial, Sans-serif">from the Noun Project</text></svg>